<?xml version="1.0" encoding="UTF-8"?>
<svg xmlns="http://www.w3.org/2000/svg" xmlns:xlink="http://www.w3.org/1999/xlink" width="528pt" height="528pt" viewBox="0 0 528 528" version="1.1">
<g id="surface1">
<path style=" stroke:none;fill-rule:nonzero;fill:rgb(13.699341%,12.199402%,12.5%);fill-opacity:1;" d="M 25.445313 235.453125 L 51.4375 235.453125 C 59.328125 235.453125 64.769531 235.875 67.75 236.730469 C 71.503906 237.730469 74.59375 239.453125 77.027344 241.894531 C 79.472656 244.320313 80.679688 247.425781 80.679688 251.179688 C 80.679688 254.394531 79.761719 257.160156 77.894531 259.492188 C 75.671875 262.296875 72.949219 264.289063 69.761719 265.453125 C 66.574219 266.632813 61.550781 267.230469 54.691406 267.230469 L 42.660156 267.230469 L 42.660156 281.453125 C 42.660156 283.566406 42.804688 284.90625 43.078125 285.464844 C 43.464844 286.222656 43.980469 286.765625 44.640625 287.0625 C 45.300781 287.375 46.636719 287.523438 48.652344 287.523438 L 50.921875 287.523438 L 50.921875 290.859375 L 25.445313 290.859375 L 25.445313 287.523438 L 26.992188 287.523438 C 29.164063 287.523438 30.648438 287.375 31.4375 287.0625 C 32.210938 286.765625 32.789063 286.289063 33.160156 285.640625 C 33.515625 284.988281 33.691406 283.769531 33.691406 281.96875 L 33.691406 244.074219 C 33.691406 242.328125 33.53125 241.148438 33.191406 240.566406 C 32.871094 239.96875 32.324219 239.519531 31.550781 239.25 C 30.777344 238.964844 29.261719 238.828125 26.992188 238.828125 L 25.445313 238.828125 Z M 42.660156 239.777344 L 42.660156 263.015625 L 52.804688 263.015625 C 57.925781 263.015625 61.519531 262.636719 63.578125 261.863281 C 65.640625 261.105469 67.347656 259.773438 68.699219 257.878906 C 70.054688 255.980469 70.730469 253.769531 70.730469 251.222656 C 70.730469 248.441406 69.941406 246.121094 68.378906 244.253906 C 66.800781 242.382813 64.660156 241.121094 61.953125 240.457031 C 60.070313 240.011719 56.382813 239.777344 50.921875 239.777344 L 42.660156 239.777344 "/>
<path style=" stroke:none;fill-rule:nonzero;fill:rgb(13.699341%,12.199402%,12.5%);fill-opacity:1;" d="M 89.457031 245.097656 L 116.269531 245.097656 C 121.367188 245.097656 125.21875 245.566406 127.824219 246.488281 C 130.433594 247.410156 132.425781 248.742188 133.839844 250.488281 C 135.238281 252.234375 135.9375 254.257813 135.9375 256.558594 C 135.9375 258.925781 135.261719 261.027344 133.890625 262.863281 C 132.527344 264.699219 130.558594 266.140625 127.988281 267.199219 C 125.421875 268.253906 126.128906 268.800781 121.882813 268.84375 C 131.722656 279.363281 138.003906 289.640625 155.316406 295.523438 C 155.316406 296.898438 144.128906 295.746094 142.066406 294.921875 C 129.734375 289.992188 126.515625 284.605469 112.65625 269.246094 L 102.984375 268.84375 L 102.984375 282.851563 C 102.984375 284.40625 103.035156 285.386719 103.164063 285.773438 C 103.441406 286.519531 103.875 287.039063 104.484375 287.339844 C 105.09375 287.640625 106.277344 287.796875 108.042969 287.796875 L 109.378906 287.796875 L 109.378906 290.53125 L 89.457031 290.53125 L 89.457031 287.796875 L 91.25 287.796875 C 92.585938 287.796875 93.488281 287.71875 93.945313 287.5625 C 94.402344 287.417969 94.808594 287.152344 95.179688 286.773438 C 95.535156 286.386719 95.789063 285.90625 95.941406 285.320313 C 95.992188 285.085938 96.03125 283.984375 96.054688 282.027344 L 96.054688 252.269531 C 96.054688 250.957031 95.902344 250.023438 95.597656 249.46875 C 95.304688 248.898438 94.886719 248.488281 94.351563 248.242188 C 93.816406 247.988281 92.902344 247.867188 91.582031 247.867188 L 89.457031 247.867188 Z M 102.984375 248.644531 L 102.984375 265.742188 L 113.664063 265.742188 C 117.300781 265.742188 119.84375 265.554688 121.304688 265.164063 C 123.386719 264.640625 125.027344 263.6875 126.234375 262.296875 C 127.445313 260.90625 128.042969 259.136719 128.042969 256.980469 C 128.042969 255.15625 127.609375 253.625 126.746094 252.378906 C 125.867188 251.132813 124.683594 250.199219 123.183594 249.578125 C 121.683594 248.957031 119.433594 248.644531 116.460938 248.644531 L 102.984375 248.644531 "/>
<path style=" stroke:none;fill-rule:nonzero;fill:rgb(13.699341%,12.199402%,12.5%);fill-opacity:1;" d="M 187.316406 244.839844 C 193.730469 244.839844 199.523438 245.824219 204.703125 247.785156 C 210.308594 249.90625 214.605469 252.65625 217.613281 256.027344 C 220.621094 259.410156 222.117188 263.316406 222.117188 267.761719 C 222.117188 274.644531 218.765625 280.261719 212.042969 284.609375 C 205.335938 288.941406 196.773438 291.109375 186.355469 291.109375 C 174.75 291.109375 165.535156 288.503906 158.761719 283.285156 C 153.222656 279.035156 150.4375 273.945313 150.4375 268.023438 C 150.4375 263.625 152.003906 259.671875 155.132813 256.167969 C 158.261719 252.675781 162.679688 249.917969 168.421875 247.882813 C 174.164063 245.855469 180.476563 244.839844 187.316406 244.839844 Z M 187.316406 248.300781 C 182.074219 248.300781 177.589844 249.066406 173.820313 250.597656 C 170.054688 252.117188 167.046875 254.371094 164.777344 257.339844 C 162.507813 260.316406 161.375 263.984375 161.375 268.34375 C 161.375 272.511719 162.492188 276.046875 164.726563 278.9375 C 166.960938 281.839844 169.953125 284.0625 173.71875 285.59375 C 177.484375 287.136719 181.714844 287.902344 186.40625 287.902344 C 191.085938 287.902344 195.210938 287.148438 198.804688 285.648438 C 202.398438 284.136719 205.371094 281.761719 207.726563 278.519531 C 210.066406 275.292969 211.253906 271.691406 211.253906 267.738281 C 211.253906 263.710938 210.066406 260.03125 207.726563 256.703125 C 205.699219 253.835938 203.035156 251.726563 199.714844 250.355469 C 196.378906 248.988281 192.253906 248.300781 187.316406 248.300781 "/>
<path style=" stroke:none;fill-rule:nonzero;fill:rgb(13.699341%,12.199402%,12.5%);fill-opacity:1;" d="M 247.503906 233.4375 L 273.496094 233.4375 C 281.386719 233.4375 286.828125 233.855469 289.808594 234.710938 C 293.5625 235.714844 296.652344 237.4375 299.085938 239.875 C 301.53125 242.300781 302.738281 245.40625 302.738281 249.160156 C 302.738281 252.375 301.824219 255.140625 299.953125 257.472656 C 297.730469 260.277344 295.011719 262.269531 291.820313 263.4375 C 288.632813 264.613281 283.609375 265.210938 276.75 265.210938 L 264.71875 265.210938 L 264.71875 279.433594 C 264.71875 281.546875 264.863281 282.890625 265.136719 283.445313 C 265.523438 284.203125 266.039063 284.746094 266.699219 285.046875 C 267.359375 285.355469 268.695313 285.507813 270.710938 285.507813 L 272.980469 285.507813 L 272.980469 288.84375 L 247.503906 288.84375 L 247.503906 285.507813 L 249.050781 285.507813 C 251.226563 285.507813 252.707031 285.355469 253.496094 285.046875 C 254.269531 284.746094 254.847656 284.273438 255.21875 283.621094 C 255.574219 282.972656 255.75 281.75 255.75 279.949219 L 255.75 242.058594 C 255.75 240.308594 255.589844 239.128906 255.25 238.546875 C 254.929688 237.949219 254.382813 237.503906 253.609375 237.230469 C 252.835938 236.945313 251.320313 236.8125 249.050781 236.8125 L 247.503906 236.8125 Z M 264.71875 237.761719 L 264.71875 260.996094 L 274.863281 260.996094 C 279.984375 260.996094 283.578125 260.617188 285.636719 259.84375 C 287.699219 259.085938 289.40625 257.757813 290.757813 255.859375 C 292.113281 253.960938 292.789063 251.75 292.789063 249.203125 C 292.789063 246.421875 292 244.105469 290.4375 242.234375 C 288.859375 240.363281 286.71875 239.101563 284.011719 238.4375 C 282.128906 237.992188 278.4375 237.761719 272.980469 237.761719 L 264.71875 237.761719 "/>
<path style=" stroke:none;fill-rule:nonzero;fill:rgb(13.699341%,12.199402%,12.5%);fill-opacity:1;" d="M 310.636719 243.882813 L 335.625 243.882813 L 335.625 246.679688 L 333.324219 246.679688 C 331.539063 246.679688 330.28125 246.804688 329.539063 247.039063 C 328.796875 247.285156 328.261719 247.632813 327.914063 248.09375 C 327.585938 248.554688 327.410156 249.375 327.410156 250.566406 L 327.410156 282.585938 C 327.410156 284.058594 327.488281 284.933594 327.648438 285.226563 C 327.820313 285.617188 328.230469 285.898438 328.84375 286.078125 C 329.269531 286.214844 330.515625 286.28125 332.582031 286.28125 L 336.050781 286.28125 C 336.988281 286.28125 342.234375 286.367188 347.476563 286.417969 C 348.027344 286.175781 348.527344 285.855469 348.96875 285.453125 C 349.574219 284.894531 350.382813 283.722656 351.367188 281.9375 L 355.277344 274.898438 C 348.792969 275.386719 341.5625 274.777344 333.425781 271.570313 C 332.742188 271.207031 332.84375 270.761719 333.5625 270.695313 C 342.578125 273.148438 350.226563 272.214844 357.550781 270.804688 L 372.339844 244.167969 L 380.28125 244.167969 L 401.152344 282.296875 C 402.171875 284.214844 403.207031 285.488281 404.261719 286.101563 C 405.296875 286.726563 406.710938 287.039063 408.46875 287.039063 L 409.523438 287.039063 L 409.523438 289.785156 L 385.578125 289.785156 L 385.578125 287.039063 C 386.351563 286.996094 387.105469 286.972656 387.847656 286.972656 C 389.394531 286.972656 390.398438 286.859375 390.890625 286.648438 C 391.8125 286.234375 392.289063 285.710938 392.289063 285.074219 C 392.289063 284.617188 391.828125 283.5 390.9375 281.703125 L 386.496094 272.875 L 386.351563 272.875 L 385.0625 270.472656 C 378.503906 269.363281 370.835938 272.46875 361.472656 274.105469 L 356.910156 282.753906 C 356.367188 283.78125 356.089844 284.484375 356.089844 284.882813 C 356.089844 285.320313 356.269531 285.699219 356.597656 286.023438 C 356.757813 286.171875 356.933594 286.304688 357.140625 286.417969 L 357.3125 286.414063 C 358.136719 286.394531 358.96875 286.355469 360.070313 285.117188 L 364.777344 279.839844 C 365.34375 279.632813 365.792969 279.722656 366.121094 280.113281 L 362.820313 287.035156 L 362.882813 287.039063 L 362.882813 289.785156 L 361.507813 289.785156 L 361.503906 289.796875 L 310.636719 289.796875 L 310.636719 287.035156 L 312.671875 287.035156 C 314.640625 287.035156 315.964844 286.910156 316.644531 286.675781 C 317.320313 286.425781 317.84375 286.035156 318.21875 285.472656 C 318.582031 284.910156 318.769531 283.945313 318.769531 282.585938 L 318.769531 251.351563 C 318.769531 249.769531 318.597656 248.710938 318.265625 248.175781 C 317.921875 247.644531 317.429688 247.253906 316.785156 247.027344 C 316.136719 246.792969 314.765625 246.679688 312.671875 246.679688 L 310.636719 246.679688 Z M 384.164063 268.71875 L 374.261719 250.050781 L 363.992188 269.5 C 370.328125 268.234375 376.652344 267.265625 383.667969 268.550781 L 384.164063 268.71875 "/>
<path style=" stroke:none;fill-rule:nonzero;fill:rgb(13.699341%,12.199402%,12.5%);fill-opacity:1;" d="M 414.472656 244.367188 L 438.421875 244.367188 L 473.945313 278.53125 L 473.945313 252.527344 C 473.945313 250.988281 473.679688 249.871094 473.160156 249.203125 C 472.644531 248.523438 471.863281 248.011719 470.8125 247.664063 C 469.761719 247.320313 468.214844 247.140625 466.171875 247.140625 L 464.148438 247.140625 L 464.148438 244.367188 L 490.292969 244.367188 L 490.292969 247.140625 L 488.878906 247.140625 C 486.570313 247.140625 485.003906 247.253906 484.183594 247.464844 C 483.035156 247.777344 482.15625 248.335938 481.585938 249.136719 C 481.011719 249.9375 480.726563 251.078125 480.726563 252.527344 L 480.726563 289.921875 L 473.945313 289.921875 L 431.144531 248.871094 L 431.144531 281.394531 C 431.144531 283.199219 431.242188 284.304688 431.433594 284.695313 C 431.679688 285.195313 432.160156 285.652344 432.84375 286.0625 C 433.53125 286.476563 434.355469 286.765625 435.289063 286.910156 C 436.207031 287.066406 438.097656 287.15625 440.941406 287.179688 L 440.941406 289.921875 L 414.472656 289.921875 L 414.472656 287.179688 L 415.867188 287.179688 C 418.558594 287.179688 420.375 287.023438 421.328125 286.722656 C 422.285156 286.421875 423.011719 285.898438 423.527344 285.148438 C 424.0625 284.414063 424.308594 283.167969 424.308594 281.394531 L 424.308594 252.527344 C 424.308594 250.71875 424.25 249.628906 424.097656 249.238281 C 423.753906 248.492188 423.105469 247.953125 422.171875 247.632813 C 421.214844 247.308594 419.324219 247.140625 416.476563 247.140625 L 414.472656 247.140625 L 414.472656 244.367188 "/>
<path style=" stroke:none;fill-rule:nonzero;fill:rgb(13.699341%,12.199402%,12.5%);fill-opacity:1;" d="M 495.785156 246.660156 L 498.746094 246.660156 C 499.304688 246.660156 499.734375 246.71875 500.019531 246.835938 C 500.308594 246.953125 500.527344 247.121094 500.683594 247.34375 C 500.839844 247.5625 500.914063 247.816406 500.914063 248.109375 C 500.914063 248.40625 500.839844 248.671875 500.691406 248.902344 C 500.539063 249.136719 500.320313 249.316406 500.039063 249.453125 C 499.753906 249.585938 499.378906 249.652344 498.910156 249.660156 L 500.421875 251.507813 C 500.546875 251.664063 500.625 251.757813 500.664063 251.792969 C 500.761719 251.878906 500.863281 251.941406 500.96875 251.988281 C 501.074219 252.03125 501.191406 252.050781 501.324219 252.050781 L 501.425781 252.050781 L 501.425781 252.398438 L 500.117188 252.398438 L 498.011719 249.660156 L 497.277344 249.660156 L 497.277344 251.429688 C 497.277344 251.625 497.285156 251.746094 497.296875 251.796875 C 497.328125 251.890625 497.375 251.957031 497.441406 251.996094 C 497.511719 252.03125 497.640625 252.050781 497.835938 252.050781 L 497.984375 252.050781 L 497.984375 252.398438 L 495.785156 252.398438 L 495.785156 252.050781 L 495.980469 252.050781 C 496.128906 252.050781 496.230469 252.042969 496.28125 252.023438 C 496.332031 252.003906 496.375 251.972656 496.414063 251.921875 C 496.453125 251.875 496.484375 251.8125 496.5 251.738281 C 496.507813 251.710938 496.511719 251.570313 496.511719 251.324219 L 496.511719 247.566406 C 496.511719 247.402344 496.496094 247.285156 496.460938 247.210938 C 496.429688 247.140625 496.382813 247.089844 496.324219 247.058594 C 496.265625 247.027344 496.164063 247.011719 496.019531 247.011719 L 495.785156 247.011719 Z M 497.277344 247.109375 L 497.277344 249.269531 L 498.457031 249.269531 C 498.859375 249.269531 499.140625 249.242188 499.300781 249.195313 C 499.53125 249.128906 499.710938 249.007813 499.84375 248.832031 C 499.976563 248.65625 500.042969 248.433594 500.042969 248.160156 C 500.042969 247.929688 499.996094 247.738281 499.898438 247.578125 C 499.804688 247.421875 499.675781 247.304688 499.507813 247.226563 C 499.34375 247.148438 499.09375 247.109375 498.765625 247.109375 L 497.277344 247.109375 "/>
<path style=" stroke:none;fill-rule:evenodd;fill:rgb(13.699341%,12.199402%,12.5%);fill-opacity:1;" d="M 498.640625 244.730469 C 501.335938 244.730469 503.519531 246.914063 503.519531 249.609375 C 503.519531 252.304688 501.335938 254.488281 498.640625 254.488281 C 495.945313 254.488281 493.757813 252.304688 493.757813 249.609375 C 493.757813 246.914063 495.945313 244.730469 498.640625 244.730469 Z M 498.640625 245.183594 C 501.082031 245.183594 503.0625 247.164063 503.0625 249.609375 C 503.0625 252.050781 501.082031 254.03125 498.640625 254.03125 C 496.195313 254.03125 494.214844 252.050781 494.214844 249.609375 C 494.214844 247.164063 496.195313 245.183594 498.640625 245.183594 "/>
<path style=" stroke:none;fill-rule:evenodd;fill:rgb(13.699341%,12.199402%,12.5%);fill-opacity:1;" d="M 362.667969 215.707031 L 187.183594 215.707031 L 187.183594 179.5 L 362.667969 179.5 L 362.667969 215.707031 "/>
<path style=" stroke:none;fill-rule:evenodd;fill:rgb(13.699341%,12.199402%,12.5%);fill-opacity:1;" d="M 371.402344 211.976563 C 371.402344 212.976563 370.945313 213.976563 370.308594 214.613281 C 369.582031 215.34375 368.671875 215.707031 367.671875 215.707031 C 366.578125 215.707031 365.667969 215.34375 364.941406 214.613281 C 364.304688 213.976563 363.851563 212.976563 363.851563 211.976563 C 363.851563 210.976563 364.304688 209.976563 364.941406 209.339844 C 365.667969 208.609375 366.578125 208.246094 367.671875 208.246094 C 368.671875 208.246094 369.582031 208.609375 370.308594 209.339844 C 370.945313 209.976563 371.402344 210.886719 371.402344 211.976563 Z M 370.582031 211.976563 C 370.582031 211.15625 370.308594 210.429688 369.761719 209.882813 C 369.21875 209.339844 368.488281 208.972656 367.671875 208.972656 C 366.851563 208.972656 366.03125 209.339844 365.578125 209.882813 C 365.03125 210.429688 364.667969 211.15625 364.667969 211.976563 C 364.667969 212.796875 365.03125 213.523438 365.578125 214.070313 C 366.03125 214.613281 366.851563 214.980469 367.671875 214.980469 C 368.488281 214.980469 369.21875 214.613281 369.761719 214.070313 C 370.308594 213.523438 370.582031 212.796875 370.582031 211.976563 "/>
<path style=" stroke:none;fill-rule:evenodd;fill:rgb(13.699341%,12.199402%,12.5%);fill-opacity:1;" d="M 366.125 209.703125 C 366.488281 209.609375 366.941406 209.609375 367.308594 209.609375 C 367.945313 209.609375 368.398438 209.703125 368.671875 209.976563 C 368.945313 210.246094 369.128906 210.519531 369.128906 210.886719 C 369.128906 211.519531 368.671875 211.976563 368.214844 212.160156 C 368.578125 212.25 368.761719 212.613281 368.855469 213.066406 C 369.035156 213.796875 369.128906 214.25 369.21875 214.433594 L 368.578125 214.433594 C 368.578125 214.25 368.398438 213.886719 368.308594 213.25 C 368.125 212.613281 367.945313 212.339844 367.308594 212.339844 L 366.761719 212.339844 L 366.761719 214.433594 L 366.125 214.433594 Z M 366.761719 211.886719 L 367.398438 211.886719 C 368.035156 211.886719 368.488281 211.519531 368.488281 210.976563 C 368.488281 210.339844 368.035156 210.066406 367.398438 210.066406 C 367.035156 210.066406 366.851563 210.15625 366.761719 210.15625 L 366.761719 211.886719 "/>
<path style=" stroke:none;fill-rule:evenodd;fill:rgb(100%,100%,100%);fill-opacity:1;" d="M 200.734375 197.785156 C 201.464844 197.875 202.011719 197.96875 202.464844 198.058594 C 203.011719 198.058594 203.464844 198.148438 203.828125 198.148438 C 205.101563 198.148438 206.195313 197.695313 207.105469 196.691406 C 208.015625 195.78125 208.46875 194.511719 208.46875 193.054688 C 208.46875 191.960938 208.285156 191.054688 207.832031 190.144531 C 207.378906 189.234375 206.742188 188.597656 205.921875 188.140625 C 205.101563 187.6875 204.191406 187.503906 203.191406 187.503906 C 202.554688 187.503906 201.738281 187.597656 200.734375 187.867188 Z M 200.734375 198.785156 L 200.734375 205.789063 C 200.734375 207.246094 200.917969 208.15625 201.28125 208.519531 C 201.738281 209.066406 202.464844 209.339844 203.375 209.339844 L 204.375 209.339844 L 204.375 209.976563 L 193.640625 209.976563 L 193.640625 209.339844 L 194.640625 209.339844 C 195.640625 209.339844 196.460938 208.972656 196.914063 208.335938 C 197.097656 207.972656 197.277344 207.0625 197.277344 205.789063 L 197.277344 190.324219 C 197.277344 188.777344 197.097656 187.867188 196.734375 187.503906 C 196.277344 186.960938 195.550781 186.6875 194.640625 186.6875 L 193.640625 186.6875 L 193.640625 186.050781 L 202.828125 186.050781 C 205.011719 186.050781 206.832031 186.320313 208.105469 186.777344 C 209.378906 187.140625 210.46875 187.960938 211.378906 188.960938 C 212.199219 190.050781 212.652344 191.234375 212.652344 192.691406 C 212.652344 194.601563 212.015625 196.238281 210.652344 197.421875 C 209.289063 198.695313 207.378906 199.238281 205.011719 199.238281 C 204.375 199.238281 203.738281 199.238281 203.011719 199.148438 C 202.28125 199.058594 201.554688 198.96875 200.734375 198.785156 "/>
<path style=" stroke:none;fill-rule:evenodd;fill:rgb(100%,100%,100%);fill-opacity:1;" d="M 235.304688 186.960938 L 235.304688 186.320313 L 243.492188 186.320313 L 243.492188 186.960938 L 242.585938 186.960938 C 241.675781 186.960938 241.035156 187.414063 240.492188 188.140625 C 240.21875 188.503906 240.128906 189.324219 240.128906 190.6875 L 240.128906 200.242188 C 240.128906 202.605469 239.945313 204.425781 239.398438 205.699219 C 238.945313 207.0625 238.035156 208.15625 236.671875 209.066406 C 235.304688 209.976563 233.394531 210.429688 231.03125 210.429688 C 228.484375 210.429688 226.480469 210.066406 225.207031 209.15625 C 223.84375 208.246094 222.933594 207.0625 222.386719 205.519531 C 222.023438 204.515625 221.84375 202.605469 221.84375 199.695313 L 221.84375 190.507813 C 221.84375 189.050781 221.570313 188.140625 221.203125 187.6875 C 220.75 187.230469 220.113281 186.960938 219.203125 186.960938 L 218.386719 186.960938 L 218.386719 186.320313 L 228.574219 186.320313 L 228.574219 186.960938 L 227.664063 186.960938 C 226.664063 186.960938 226.027344 187.324219 225.570313 187.867188 C 225.300781 188.324219 225.117188 189.234375 225.117188 190.507813 L 225.117188 200.785156 C 225.117188 201.695313 225.207031 202.695313 225.390625 203.878906 C 225.570313 205.0625 225.84375 206.0625 226.300781 206.699219 C 226.753906 207.335938 227.390625 207.882813 228.210938 208.335938 C 229.027344 208.792969 230.027344 208.972656 231.304688 208.972656 C 232.851563 208.972656 234.214844 208.609375 235.488281 207.972656 C 236.671875 207.246094 237.488281 206.425781 237.945313 205.335938 C 238.398438 204.335938 238.671875 202.515625 238.671875 200.058594 L 238.671875 190.507813 C 238.671875 189.050781 238.488281 188.140625 238.125 187.777344 C 237.671875 187.230469 237.035156 186.960938 236.125 186.960938 L 235.304688 186.960938 "/>
<path style=" stroke:none;fill-rule:evenodd;fill:rgb(100%,100%,100%);fill-opacity:1;" d="M 258.050781 197.875 C 258.230469 197.875 258.414063 197.875 258.59375 197.875 C 258.777344 197.875 258.867188 197.875 258.960938 197.875 C 261.234375 197.875 262.960938 197.421875 264.054688 196.421875 C 265.234375 195.421875 265.78125 194.238281 265.78125 192.691406 C 265.78125 191.234375 265.328125 189.960938 264.417969 189.050781 C 263.507813 188.140625 262.234375 187.6875 260.6875 187.6875 C 260.050781 187.6875 259.140625 187.777344 258.050781 188.050781 Z M 274.878906 210.066406 L 268.511719 210.066406 L 260.414063 198.96875 C 259.867188 198.96875 259.414063 199.058594 259.050781 199.058594 C 258.867188 199.058594 258.6875 199.058594 258.503906 198.96875 C 258.320313 198.96875 258.230469 198.96875 258.050781 198.96875 L 258.050781 205.882813 C 258.050781 207.429688 258.140625 208.335938 258.503906 208.699219 C 258.960938 209.15625 259.597656 209.429688 260.503906 209.429688 L 261.414063 209.429688 L 261.414063 210.066406 L 251.226563 210.066406 L 251.226563 209.429688 L 252.136719 209.429688 C 253.136719 209.429688 253.863281 209.15625 254.320313 208.429688 C 254.5 208.15625 254.683594 207.246094 254.683594 205.882813 L 254.683594 190.507813 C 254.683594 189.050781 254.5 188.140625 254.136719 187.777344 C 253.683594 187.230469 253.046875 186.960938 252.136719 186.960938 L 251.226563 186.960938 L 251.226563 186.320313 L 259.867188 186.320313 C 262.414063 186.320313 264.234375 186.503906 265.507813 186.867188 C 266.691406 187.230469 267.691406 187.960938 268.511719 188.960938 C 269.328125 189.960938 269.785156 191.054688 269.785156 192.417969 C 269.785156 193.964844 269.328125 195.144531 268.328125 196.238281 C 267.417969 197.328125 265.871094 198.058594 263.871094 198.511719 L 268.785156 205.335938 C 269.964844 206.882813 270.875 207.972656 271.695313 208.429688 C 272.515625 208.972656 273.515625 209.339844 274.878906 209.429688 L 274.878906 210.066406 "/>
<path style=" stroke:none;fill-rule:evenodd;fill:rgb(100%,100%,100%);fill-opacity:1;" d="M 291.800781 209.429688 L 291.800781 210.066406 L 281.609375 210.066406 L 281.609375 209.429688 L 282.519531 209.429688 C 283.429688 209.429688 284.15625 209.15625 284.613281 208.609375 C 284.886719 208.246094 285.066406 207.335938 285.066406 205.882813 L 285.066406 190.507813 C 285.066406 189.324219 284.976563 188.503906 284.796875 188.140625 C 284.703125 187.867188 284.429688 187.597656 284.066406 187.414063 C 283.613281 187.140625 283.066406 186.960938 282.519531 186.960938 L 281.609375 186.960938 L 281.609375 186.320313 L 291.800781 186.320313 L 291.800781 186.960938 L 290.890625 186.960938 C 289.980469 186.960938 289.253906 187.324219 288.796875 187.867188 C 288.523438 188.234375 288.433594 189.140625 288.433594 190.507813 L 288.433594 205.882813 C 288.433594 207.0625 288.433594 207.882813 288.617188 208.246094 C 288.707031 208.609375 288.980469 208.792969 289.34375 209.066406 C 289.890625 209.339844 290.34375 209.429688 290.890625 209.429688 L 291.800781 209.429688 "/>
<path style=" stroke:none;fill-rule:evenodd;fill:rgb(100%,100%,100%);fill-opacity:1;" d="M 300.898438 186.503906 L 307.355469 186.503906 L 322.003906 204.335938 L 322.003906 190.597656 C 322.003906 189.140625 321.820313 188.234375 321.457031 187.867188 C 321.003906 187.414063 320.363281 187.140625 319.363281 187.140625 L 318.546875 187.140625 L 318.546875 186.503906 L 326.914063 186.503906 L 326.914063 187.140625 L 326.003906 187.140625 C 325.003906 187.140625 324.277344 187.414063 323.914063 188.050781 C 323.640625 188.414063 323.457031 189.234375 323.457031 190.597656 L 323.457031 210.703125 L 322.914063 210.703125 L 307.175781 191.507813 L 307.175781 206.246094 C 307.175781 207.699219 307.265625 208.609375 307.628906 208.972656 C 308.085938 209.429688 308.722656 209.703125 309.722656 209.703125 L 310.539063 209.703125 L 310.539063 210.339844 L 302.171875 210.339844 L 302.171875 209.703125 L 303.078125 209.703125 C 304.082031 209.703125 304.808594 209.339844 305.265625 208.792969 C 305.445313 208.429688 305.628906 207.519531 305.628906 206.246094 L 305.628906 189.597656 C 304.898438 188.777344 304.355469 188.234375 304.082031 188.050781 C 303.71875 187.777344 303.171875 187.503906 302.445313 187.324219 C 302.171875 187.140625 301.625 187.140625 300.898438 187.140625 L 300.898438 186.503906 "/>
<path style=" stroke:none;fill-rule:evenodd;fill:rgb(100%,100%,100%);fill-opacity:1;" d="M 346.746094 200.695313 L 342.5625 190.78125 L 338.285156 200.695313 Z M 347.292969 202.058594 L 337.742188 202.058594 L 336.011719 205.882813 C 335.648438 206.789063 335.46875 207.519531 335.46875 207.972656 C 335.46875 208.429688 335.558594 208.699219 335.921875 208.972656 C 336.285156 209.246094 337.105469 209.519531 338.285156 209.519531 L 338.285156 210.246094 L 330.554688 210.246094 L 330.554688 209.519531 C 331.554688 209.339844 332.191406 209.15625 332.554688 208.882813 C 333.101563 208.246094 333.828125 207.0625 334.558594 205.335938 L 343.289063 185.046875 L 343.835938 185.046875 L 352.386719 205.519531 C 353.113281 207.15625 353.753906 208.246094 354.296875 208.699219 C 354.84375 209.246094 355.664063 209.519531 356.664063 209.519531 L 356.664063 210.246094 L 346.929688 210.246094 L 346.929688 209.519531 C 347.929688 209.519531 348.566406 209.339844 348.929688 209.066406 C 349.296875 208.792969 349.476563 208.429688 349.476563 208.066406 C 349.476563 207.519531 349.203125 206.699219 348.746094 205.519531 L 347.292969 202.058594 "/>
<path style=" stroke:none;fill-rule:evenodd;fill:rgb(92.89856%,10.998535%,14.099121%);fill-opacity:1;" d="M 186.089844 215.707031 L 149.335938 215.707031 L 149.335938 179.316406 L 186.546875 179.316406 L 186.546875 215.707031 Z M 150.066406 214.980469 L 185.726563 214.980469 L 185.726563 180.136719 L 150.066406 180.136719 L 150.066406 214.980469 "/>
<path style=" stroke:none;fill-rule:evenodd;fill:rgb(92.89856%,10.998535%,14.099121%);fill-opacity:1;" d="M 162.527344 192.597656 L 151.792969 192.597656 L 151.792969 181.773438 L 162.527344 181.773438 L 162.527344 192.597656 "/>
<path style=" stroke:none;fill-rule:evenodd;fill:rgb(92.89856%,10.998535%,14.099121%);fill-opacity:1;" d="M 173.082031 202.96875 L 162.253906 202.96875 L 162.253906 192.144531 L 173.082031 192.144531 L 173.082031 202.96875 "/>
<path style=" stroke:none;fill-rule:evenodd;fill:rgb(92.89856%,10.998535%,14.099121%);fill-opacity:1;" d="M 183.453125 192.597656 L 172.625 192.597656 L 172.625 181.773438 L 183.453125 181.773438 L 183.453125 192.597656 "/>
<path style=" stroke:none;fill-rule:evenodd;fill:rgb(92.89856%,10.998535%,14.099121%);fill-opacity:1;" d="M 162.527344 213.339844 L 151.792969 213.339844 L 151.792969 202.515625 L 162.527344 202.515625 L 162.527344 213.339844 "/>
<path style=" stroke:none;fill-rule:evenodd;fill:rgb(92.89856%,10.998535%,14.099121%);fill-opacity:1;" d="M 183.453125 213.339844 L 172.625 213.339844 L 172.625 202.515625 L 183.453125 202.515625 L 183.453125 213.339844 "/>
</g>
</svg>
