<?xml version="1.0" encoding="utf-8"?>
<!-- Generator: Adobe Illustrator 19.0.0, SVG Export Plug-In . SVG Version: 6.00 Build 0)  -->
<svg version="1.1" id="layer" xmlns="http://www.w3.org/2000/svg" xmlns:xlink="http://www.w3.org/1999/xlink" x="0px" y="0px"
	 viewBox="-200 -250 600 1000" width="800" height="800" style="enable-background:new -153 -46 652 652;" xml:space="preserve">
<style type="text/css">
	.st0{fill:#FF5000;}
</style>
<path class="st0" d="M-231.9,46.8c-1.2-4,1.3-8.1,5.4-8.8l67.1-11.8c3.4-0.6,6.7,1.4,7.8,4.7l31.7,102c1.9,6.2,10.6,6.5,12.9,0.5
	l27.4-69.9c1-2.5,3.3-4.2,6-4.4l38.1-2.2c3-0.2,5.7,1.6,6.8,4.3l27.9,70.4c2.4,6.1,11.1,5.7,13-0.6l29.2-101c0.9-3,3.7-5.1,6.8-4.9
	l64.9,2.5c4.5,0.2,7.6,4.5,6.3,8.8L54.8,259.9c-0.8,2.9-3.5,5-6.6,5l-64,0.1c-3,0-5.7-1.9-6.6-4.8L-49,175c-2-6.4-11-6.4-13.1,0
	l-27.3,85.3c-0.9,2.8-3.6,4.8-6.5,4.8l-63.7,0.1c-3,0-5.7-2-6.6-4.8L-231.9,46.8 M347.1,266.6c26.2,0,46.6-5.8,61.2-17.3
	c14.6-11.5,21.9-27.8,21.9-48.8l0-0.7c0-9.8-1.8-18.1-5.3-24.9c-3.5-6.8-8.6-12.6-15.3-17.5c-6.7-4.9-14.8-9.1-24.4-12.4
	c-9.6-3.4-20.5-6.6-32.7-9.6c-9.6-2.4-15.9-4.3-19-6c-3-1.6-4.6-3.4-4.6-5.2v-0.7c0-4,3.7-6,11.2-6c8.2,0,17.8,1.6,29,4.7
	c8.2,2.3,16.1,5.3,23.9,8.9c4.7,2.2,10.3,0.4,12.7-4.2l16.3-30.6c2.5-4.7,0.7-10.7-4.1-13.1c-9.5-4.8-19.9-8.6-31.3-11.6
	c-14.9-3.8-30.3-5.8-46.2-5.7c-12.4,0-23.8,1.5-34,4.4c-10.3,2.9-19.1,7.2-26.5,12.7c-7.4,5.5-13,12.4-17,20.6c-4,8.2-6,17.6-6,28.1
	v0.7c0,9.8,1.8,18.2,5.5,25.1c3.6,6.9,8.8,12.8,15.6,17.5c6.8,4.8,15,8.9,24.6,12.3c9.6,3.4,20.5,6.6,32.7,9.6
	c9.6,2.6,15.8,4.6,18.6,6.1c2.8,1.5,4.2,3.2,4.2,5.1v0.7c0,4.2-3.8,6.3-11.6,6.3c-11,0-22.7-1.7-35-5.2c-9.4-2.7-18.8-6.5-27.9-11.4
	c-4.6-2.5-10.3-1-13,3.5l-17.2,28.9c-2.7,4.6-1.2,10.7,3.4,13.3c11.5,6.6,23.9,11.8,37.2,15.5C310.8,264.3,328.4,266.6,347.1,266.6
	 M239.1,328.1c-2.7,0.1-4.6,2.8-3.7,5.4l50.3,151.2c0.6,1.7,2.2,2.8,4,2.8l46.7-1.5c1.8-0.1,3.3-1.2,3.8-3l14.5-50.7
	c1.1-3.8,6.5-4,7.8-0.2l17.2,49.7c0.6,1.7,2.2,2.8,4,2.7l47-1.5c1.8-0.1,3.3-1.3,3.8-3l37.8-143c0.7-2.5-1.2-5-3.8-5.1l-49.4-1.9
	c-2-0.1-3.7,1.3-4.1,3.2l-10.2,45c-0.9,4-6.6,4.3-7.9,0.4l-15.1-45.2c-0.6-1.7-2.2-2.9-4-2.8l-44.5,1.4c-1.8,0-3.4,1.3-3.8,3
	L317.6,380c-1.1,4-6.7,4.1-7.9,0.1l-14.6-50.7c-0.5-1.8-2.2-3-4-3L239.1,328.1 M520.7,262c9.5,0,18.5-1,27-2.9
	c6.7-1.5,12.6-3.4,17.8-5.6c2.5-1.1,4.1-3.6,4.1-6.4l0-44.7c0-4.7-4.5-7.9-9-6.6c-5,1.4-9.7,2.1-14.2,2.1c-6.1,0-10.7-1.4-13.9-4.2
	c-3.2-2.8-4.7-7.7-4.7-14.6l0-39.3c0-3.8,3.1-7,6.9-7l28.2,0c4,0,7.2-3.4,6.9-7.4l-2.7-45.5c-0.2-3.7-3.3-6.6-7-6.5l-25.4,0.3
	c-3.9,0.1-7-3.1-7-6.9l0-32.2c0-3.8-3.1-6.9-7-6.9l-63,0.1c-3.8,0-7,3.1-6.9,7l0,32.3c0,3.8-3.1,7-6.9,7l-7.7,0c-3.8,0-7,3.1-6.9,7
	l0,24l0,21.1c0,3.8,3.1,6.9,6.9,6.9l7.7,0c3.8,0,7,3.1,7,6.9l0.1,56.5c0,22.5,6,39.1,17.8,49.7C480.6,256.7,497.9,262,520.7,262
	 M15.9,506.9c0.4,3.4-2,6.5-5.4,7.1L-58.7,525c-3.7,0.6-7.1-2-7.5-5.7l-21.3-206.8c-0.4-3.6,2.2-6.8,5.8-7.1l88.2-8.7
	c68.1-6.7,99.1,28.9,103.1,67.8c4.4,42.9-26.5,77.3-79.5,82.5l-13.7,1.4c-3.6,0.4-6.2,3.5-5.8,7.1L15.9,506.9 M3.8,389
	c0.4,3.5,3.5,6.1,7.1,5.8l1.9-0.2c13-1.3,18-12.5,16.8-23.8c-1.1-11.2-8.3-21.3-21.3-20.1l-1.9,0.2c-3.6,0.4-6.2,3.5-5.8,7.1
	L3.8,389z"/>
<path class="st0" d="M139.6,513.8c-7.4-0.2-14.2-1.3-20.4-3.6c-6.2-2.2-11.6-5.4-16-9.6c-4.5-4.2-7.9-9.2-10.2-15.2
	c-2.3-5.9-3.4-12.8-3.3-20.6l0-0.6c0.3-15.6,5.9-27.4,16.7-35.5c10.8-8.1,25.3-12,43.5-11.6c3.2,0.1,6.6,0.3,10.2,0.6
	c3.6,0.4,7,0.8,10.4,1.5c3.3,0.6,6.4,1.3,9.2,2c2.8,0.7,5.1,1.5,6.8,2.3l0.1-2.6c0.1-7.2-2-12.8-6.5-16.8c-4.5-4-11.7-6.1-21.8-6.3
	c-8-0.2-15.4,0.5-22.4,2c-5.3,1.1-10.5,2.5-15.8,4.2c-2.7,0.9-5.6-0.7-6.2-3.4l-8.2-33.8c-0.6-2.4,0.8-4.9,3.1-5.7
	c8-2.6,16.4-4.7,25.3-6.3c10.5-1.9,22.5-2.7,36.2-2.4c16,0.3,29.1,2.3,39.6,5.8c10.5,3.5,19,8.8,25.7,15.8c5.8,6,9.8,12.9,12.1,20.7
	c2.3,7.8,3.3,17.4,3.1,28.8l-1.7,83.7c-0.1,2.7-2.3,4.8-4.9,4.7l-55-1.1c-2.7,0-4.8-2.2-4.7-4.9c0.1-3.9-4.4-6.4-7.6-4
	c-3.6,2.7-7.5,5-11.7,6.9C157.8,512.4,149.3,513.9,139.6,513.8 M167,477c4-0.1,7.8-1.5,11-3.9c5.4-4.3,8.3-10.8,8.5-19.6v-0.1
	c0.1-4-2.6-7.6-6.6-8.4c0,0-0.1,0-0.1,0c-2.7-0.5-5.3-0.8-8-0.9c-6.5-0.1-11.4,1.4-14.9,4.7c-3.5,3.2-5.3,7.3-5.4,12.3l0,0.6
	c-0.1,4.6,1.2,8.2,4,11.1C158.5,475.7,162.4,477.1,167,477 M170.9,315.5c-15.7,0-30-2.4-43-7.2c-13-4.8-24.1-11.5-33.4-20.1
	c-9.2-8.6-16.4-19-21.4-31.2c-5-12.2-7.6-25.7-7.6-40.7v-0.7c0-14.3,2.4-27.6,7.3-39.9c4.9-12.3,11.7-23,20.3-32
	c8.6-9,19-16.1,31-21.3c12.1-5.1,25.3-7.7,39.9-7.8c17.1,0,31.9,2.7,44.4,8.2c12.5,5.5,22.9,13,31.1,22.6
	c8.2,9.6,14.3,20.8,18.3,33.7c4,12.9,6,26.6,6,41.1v6.7c0,3.7-3.1,6.6-6.7,6.6L151,233.7c-5.5,0-8.6,6.2-5.5,10.6
	c2.3,3.4,5.2,6.2,8.5,8.5c6.3,4.3,13.8,6.5,22.5,6.5c7.2,0,14-1.7,20.2-4.9c4.8-2.6,9.7-6.1,14.6-10.7c2.4-2.3,6.2-2.4,8.8-0.4
	l32.9,26.1c3,2.4,3.4,6.8,0.9,9.7c-8.7,10-19,18.2-30.8,24.8C209.1,311.6,191.7,315.5,170.9,315.5 M183,198.6c4.4,0,7.7-4.2,6.5-8.4
	c-1.5-5.2-3.9-9.5-7.2-12.8c-4.9-5-10.9-7.5-17.9-7.5c-6.8,0-12.4,2.6-16.9,7.7c-2.8,3.3-5,7.4-6.5,12.2c-1.3,4.4,1.8,8.8,6.4,8.8
	L183,198.6z M455.7,468v13.9H452V468h-4.8v-2.9h12.9v2.9H455.7 M475.3,481.9l0.1-13.3l-3.4,13.3H469l-3.5-13.5l0.2,13.5h-3.4l0-16.8
	h5.4l2.9,11.8l2.8-11.8h5.3l0,16.8H475.3z"/>
</svg>
